<?xml version="1.0" standalone="no"?>
<!DOCTYPE svg PUBLIC "-//W3C//DTD SVG 20010904//EN"
 "http://www.w3.org/TR/2001/REC-SVG-20010904/DTD/svg10.dtd">
<svg version="1.0" xmlns="http://www.w3.org/2000/svg"
 width="512.000000pt" height="512.000000pt" viewBox="0 0 512.000000 512.000000"
 preserveAspectRatio="xMidYMid meet">
<metadata>
Created by potrace 1.14, written by Peter Selinger 2001-2017
</metadata>
<g transform="translate(0.000000,512.000000) scale(0.100000,-0.100000)"
fill="#000000" stroke="none">
<path d="M2320 4949 c-408 -50 -722 -160 -1060 -373 -36 -22 -67 -43 -70 -46
-3 -3 -32 -25 -65 -49 -129 -95 -291 -247 -390 -366 -28 -33 -52 -62 -55 -65
-40 -39 -186 -263 -243 -373 -123 -236 -225 -550 -252 -777 -4 -30 -10 -82
-15 -115 -13 -97 -4 -448 14 -565 57 -366 189 -709 380 -989 28 -40 56 -81 61
-90 6 -9 12 -18 15 -21 3 -3 21 -25 40 -50 50 -66 74 -92 185 -204 283 -286
627 -490 1025 -610 47 -14 97 -27 113 -30 15 -3 37 -8 50 -12 12 -4 29 -8 37
-9 8 -1 31 -4 50 -8 215 -41 604 -44 803 -6 28 5 66 12 82 15 289 50 655 207
910 389 406 290 708 681 873 1130 113 307 151 534 146 865 -2 113 -5 221 -8
240 -3 19 -8 51 -11 70 -11 80 -17 110 -41 210 -31 135 -75 269 -129 395 -47
108 -119 250 -141 276 -8 8 -14 19 -14 23 0 18 -167 248 -240 330 -45 51 -207
213 -246 246 -231 196 -522 362 -799 455 -118 40 -320 88 -420 101 -27 3 -61
8 -75 11 -44 8 -442 10 -510 2z m500 -324 c19 -3 62 -11 95 -16 247 -42 526
-148 740 -282 533 -333 886 -884 971 -1517 10 -74 12 -390 3 -460 -4 -36 -11
-85 -14 -109 -46 -355 -243 -771 -500 -1060 -325 -364 -783 -614 -1245 -677
-25 -3 -54 -8 -65 -11 -11 -3 -108 -6 -215 -7 -274 -4 -497 32 -742 120 -74
27 -259 114 -333 156 -191 111 -421 307 -560 478 -20 25 -43 53 -52 64 -8 10
-47 66 -85 125 -151 229 -266 522 -312 801 -27 161 -28 532 -1 660 3 14 7 36
10 50 123 644 539 1193 1120 1480 224 111 419 170 675 204 94 13 438 14 510 1z"/>
<path d="M1705 3506 c-164 -41 -290 -169 -330 -332 -14 -61 -16 -136 -13 -639
2 -313 7 -582 11 -598 27 -103 116 -219 206 -270 102 -58 108 -59 372 -64 281
-6 297 -2 351 71 26 36 29 48 26 93 -3 37 -13 62 -33 88 -45 60 -68 65 -302
65 -234 0 -260 6 -295 71 -17 32 -18 68 -18 574 1 506 2 542 19 568 39 60 46
62 298 67 214 5 234 7 259 26 48 35 66 69 70 125 3 73 -23 117 -92 156 -30 17
-462 16 -529 -1z"/>
<path d="M2622 3504 c-72 -37 -105 -119 -82 -204 7 -25 13 -52 15 -60 2 -8 8
-33 13 -55 6 -22 13 -51 16 -65 2 -14 38 -162 80 -330 71 -292 114 -468 121
-500 2 -8 20 -80 40 -160 40 -158 44 -173 51 -210 3 -14 9 -41 14 -60 5 -19
16 -66 25 -103 17 -68 48 -117 88 -139 36 -19 105 -20 143 -2 54 26 78 67 127
219 158 489 288 890 352 1085 140 426 138 419 131 463 -20 120 -159 176 -253
101 -41 -33 -57 -76 -278 -759 -123 -379 -122 -379 -128 -359 -4 11 -16 60
-27 109 -12 50 -55 227 -96 395 -41 168 -82 334 -90 370 -9 36 -18 72 -20 80
-2 8 -8 35 -14 59 -14 59 -25 76 -64 106 -45 34 -118 42 -164 19z"/>
</g>
</svg>
